<?xml version="1.0" standalone="no"?>
<!DOCTYPE svg PUBLIC "-//W3C//DTD SVG 20010904//EN"
 "http://www.w3.org/TR/2001/REC-SVG-20010904/DTD/svg10.dtd">
<svg version="1.0" xmlns="http://www.w3.org/2000/svg"
 width="225.000000pt" height="225.000000pt" viewBox="0 0 225.000000 225.000000"
 preserveAspectRatio="xMidYMid meet">

<g transform="translate(0.000000,225.000000) scale(0.100000,-0.100000)"
fill="#000000" stroke="none">
<path d="M782 1978 c-9 -9 -12 -79 -12 -255 l0 -243 -246 -2 c-222 -3 -248 -5
-258 -20 -8 -13 -8 -23 0 -35 10 -16 36 -18 258 -21 l246 -2 0 -275 0 -275
-246 -2 c-222 -3 -248 -5 -258 -20 -8 -13 -8 -23 0 -35 10 -16 36 -18 257 -21
l247 -2 2 -247 c3 -221 5 -247 21 -257 12 -8 22 -8 35 0 15 10 17 36 20 258
l2 246 275 0 275 0 2 -246 c3 -222 5 -248 21 -258 12 -8 22 -8 35 0 15 10 17
36 20 257 l2 247 247 2 c221 3 247 5 257 21 8 12 8 22 0 35 -10 15 -36 17
-258 20 l-246 2 0 275 0 275 246 2 c222 3 248 5 258 21 8 12 8 22 0 35 -10 15
-36 17 -257 20 l-247 2 -2 247 c-3 221 -5 247 -20 257 -13 8 -23 8 -35 0 -16
-10 -18 -36 -21 -258 l-2 -246 -275 0 -275 0 0 243 c0 249 -3 267 -40 267 -9
0 -21 -5 -28 -12z m618 -853 l0 -275 -275 0 -275 0 0 275 0 275 275 0 275 0 0
-275z"/>
<path d="M1035 1321 c-208 -96 -139 -411 90 -411 233 0 298 325 83 414 -50 21
-124 20 -173 -3z m186 -98 c54 -54 55 -139 3 -194 -56 -59 -145 -57 -201 5
-28 30 -33 43 -33 83 0 60 16 91 60 121 51 34 129 28 171 -15z"/>
<path d="M962 1918 c-22 -22 -13 -42 48 -103 l60 -61 -60 -59 c-60 -60 -70
-81 -48 -103 22 -22 43 -12 103 48 l59 60 61 -60 c61 -61 81 -70 103 -48 22
22 13 42 -48 103 l-60 61 60 59 c60 60 70 81 48 103 -22 22 -42 13 -103 -48
l-61 -60 -59 60 c-60 60 -81 70 -103 48z"/>
<path d="M332 658 c-22 -22 -12 -43 48 -103 l60 -59 -61 -62 c-53 -53 -61 -66
-55 -88 11 -44 45 -33 111 34 l59 60 61 -60 c61 -61 81 -70 103 -48 21 21 13
39 -48 102 l-59 62 59 59 c60 60 70 81 48 103 -22 22 -43 12 -103 -48 l-59
-59 -62 59 c-63 61 -81 69 -102 48z"/>
</g>
</svg>
